<mxfile host="app.diagrams.net" agent="Mozilla/5.0 (X11; Linux x86_64; rv:133.0) Gecko/20100101 Firefox/133.0" version="26.2.12">
  <diagram name="Page-1" id="pQYi7541R-ThFD2XaqdE">
    <mxGraphModel dx="1281" dy="517" grid="1" gridSize="10" guides="1" tooltips="1" connect="1" arrows="1" fold="1" page="1" pageScale="1" pageWidth="827" pageHeight="1169" math="0" shadow="0">
      <root>
        <mxCell id="0" />
        <mxCell id="1" parent="0" />
        <mxCell id="NiGll6_aQPC-tIKGuFM7-1" value="FahrrÃ¤der suchen" style="ellipse;whiteSpace=wrap;html=1;" parent="1" vertex="1">
          <mxGeometry x="390" y="290" width="140" height="70" as="geometry" />
        </mxCell>
        <mxCell id="NiGll6_aQPC-tIKGuFM7-2" value="Kunde" style="shape=umlActor;verticalLabelPosition=bottom;verticalAlign=top;html=1;" parent="1" vertex="1">
          <mxGeometry x="140" y="210" width="30" height="60" as="geometry" />
        </mxCell>
        <mxCell id="NiGll6_aQPC-tIKGuFM7-4" value="Fahrrad kaufen" style="ellipse;whiteSpace=wrap;html=1;" parent="1" vertex="1">
          <mxGeometry x="530" y="460" width="140" height="70" as="geometry" />
        </mxCell>
        <mxCell id="NiGll6_aQPC-tIKGuFM7-5" value="Fahrrad vorbestellen" style="ellipse;whiteSpace=wrap;html=1;" parent="1" vertex="1">
          <mxGeometry x="260" y="460" width="140" height="70" as="geometry" />
        </mxCell>
        <mxCell id="NiGll6_aQPC-tIKGuFM7-6" value="Frage an Beratung senden" style="ellipse;whiteSpace=wrap;html=1;" parent="1" vertex="1">
          <mxGeometry x="390" y="150" width="140" height="70" as="geometry" />
        </mxCell>
        <mxCell id="NiGll6_aQPC-tIKGuFM7-7" value="Authentifizieren" style="ellipse;whiteSpace=wrap;html=1;" parent="1" vertex="1">
          <mxGeometry x="390" y="620" width="140" height="70" as="geometry" />
        </mxCell>
        <mxCell id="NiGll6_aQPC-tIKGuFM7-8" value="Platinkunde" style="shape=umlActor;verticalLabelPosition=bottom;verticalAlign=top;html=1;" parent="1" vertex="1">
          <mxGeometry x="140" y="782" width="30" height="60" as="geometry" />
        </mxCell>
        <mxCell id="NiGll6_aQPC-tIKGuFM7-9" value="Sortimentanpassung vorschlagen" style="ellipse;whiteSpace=wrap;html=1;" parent="1" vertex="1">
          <mxGeometry x="390" y="777" width="140" height="70" as="geometry" />
        </mxCell>
        <mxCell id="NiGll6_aQPC-tIKGuFM7-10" value="" style="endArrow=none;html=1;rounded=0;" parent="1" target="NiGll6_aQPC-tIKGuFM7-6" edge="1">
          <mxGeometry width="50" height="50" relative="1" as="geometry">
            <mxPoint x="190" y="230" as="sourcePoint" />
            <mxPoint x="310" y="210" as="targetPoint" />
          </mxGeometry>
        </mxCell>
        <mxCell id="NiGll6_aQPC-tIKGuFM7-11" value="" style="endArrow=none;html=1;rounded=0;" parent="1" target="NiGll6_aQPC-tIKGuFM7-1" edge="1">
          <mxGeometry width="50" height="50" relative="1" as="geometry">
            <mxPoint x="190" y="260" as="sourcePoint" />
            <mxPoint x="340" y="270" as="targetPoint" />
          </mxGeometry>
        </mxCell>
        <mxCell id="NiGll6_aQPC-tIKGuFM7-12" value="&amp;lt;&amp;lt;extend&amp;gt;&amp;gt;" style="html=1;verticalAlign=bottom;labelBackgroundColor=none;endArrow=open;endFill=0;dashed=1;rounded=0;" parent="1" source="NiGll6_aQPC-tIKGuFM7-4" target="NiGll6_aQPC-tIKGuFM7-1" edge="1">
          <mxGeometry x="0.1679" y="30" width="160" relative="1" as="geometry">
            <mxPoint x="680" y="340" as="sourcePoint" />
            <mxPoint x="460" y="390" as="targetPoint" />
            <mxPoint as="offset" />
          </mxGeometry>
        </mxCell>
        <mxCell id="NiGll6_aQPC-tIKGuFM7-14" value="&amp;lt;&amp;lt;extend&amp;gt;&amp;gt;" style="html=1;verticalAlign=bottom;labelBackgroundColor=none;endArrow=open;endFill=0;dashed=1;rounded=0;" parent="1" source="NiGll6_aQPC-tIKGuFM7-5" target="NiGll6_aQPC-tIKGuFM7-1" edge="1">
          <mxGeometry x="0.2022" y="-34" width="160" relative="1" as="geometry">
            <mxPoint x="290" y="370" as="sourcePoint" />
            <mxPoint x="390" y="370" as="targetPoint" />
            <mxPoint as="offset" />
          </mxGeometry>
        </mxCell>
        <mxCell id="NiGll6_aQPC-tIKGuFM7-15" value="&amp;lt;&amp;lt;include&amp;gt;&amp;gt;" style="html=1;verticalAlign=bottom;labelBackgroundColor=none;endArrow=open;endFill=0;dashed=1;rounded=0;" parent="1" source="NiGll6_aQPC-tIKGuFM7-5" target="NiGll6_aQPC-tIKGuFM7-7" edge="1">
          <mxGeometry x="0.4236" y="24" width="160" relative="1" as="geometry">
            <mxPoint x="150" y="610" as="sourcePoint" />
            <mxPoint x="310" y="610" as="targetPoint" />
            <mxPoint as="offset" />
          </mxGeometry>
        </mxCell>
        <mxCell id="NiGll6_aQPC-tIKGuFM7-17" value="&amp;lt;&amp;lt;include&amp;gt;&amp;gt;" style="html=1;verticalAlign=bottom;labelBackgroundColor=none;endArrow=open;endFill=0;dashed=1;rounded=0;" parent="1" source="NiGll6_aQPC-tIKGuFM7-4" target="NiGll6_aQPC-tIKGuFM7-7" edge="1">
          <mxGeometry x="-0.4578" y="41" width="160" relative="1" as="geometry">
            <mxPoint x="540" y="630" as="sourcePoint" />
            <mxPoint x="700" y="630" as="targetPoint" />
            <mxPoint as="offset" />
          </mxGeometry>
        </mxCell>
        <mxCell id="NiGll6_aQPC-tIKGuFM7-18" value="&amp;lt;&amp;lt;include&amp;gt;&amp;gt;" style="html=1;verticalAlign=bottom;labelBackgroundColor=none;endArrow=open;endFill=0;dashed=1;rounded=0;" parent="1" source="NiGll6_aQPC-tIKGuFM7-9" target="NiGll6_aQPC-tIKGuFM7-7" edge="1">
          <mxGeometry x="-0.3793" y="-40" width="160" relative="1" as="geometry">
            <mxPoint x="460" y="720" as="sourcePoint" />
            <mxPoint x="620" y="720" as="targetPoint" />
            <mxPoint as="offset" />
          </mxGeometry>
        </mxCell>
        <mxCell id="NiGll6_aQPC-tIKGuFM7-19" value="" style="endArrow=none;html=1;rounded=0;" parent="1" target="NiGll6_aQPC-tIKGuFM7-9" edge="1">
          <mxGeometry width="50" height="50" relative="1" as="geometry">
            <mxPoint x="200" y="810" as="sourcePoint" />
            <mxPoint x="290" y="720" as="targetPoint" />
          </mxGeometry>
        </mxCell>
        <mxCell id="_8FmbokbAtky3qnJp7CH-1" value="" style="endArrow=none;html=1;rounded=0;startArrow=block;startFill=0;" edge="1" parent="1">
          <mxGeometry width="50" height="50" relative="1" as="geometry">
            <mxPoint x="160" y="310" as="sourcePoint" />
            <mxPoint x="160" y="750" as="targetPoint" />
          </mxGeometry>
        </mxCell>
      </root>
    </mxGraphModel>
  </diagram>
</mxfile>
